<?xml version="1.0" encoding="iso-8859-1"?>
<!-- Generator: Adobe Illustrator 20.0.0, SVG Export Plug-In . SVG Version: 6.00 Build 0)  -->
<svg version="1.1" id="Layer_1_1_" xmlns="http://www.w3.org/2000/svg" xmlns:xlink="http://www.w3.org/1999/xlink" x="0px" y="0px"
	 viewBox="0 0 64 64" style="enable-background:new 0 0 64 64;" xml:space="preserve">
<g id="Guide">
	<g>
	</g>
	<g>
	</g>
	<g>
	</g>
	<g>
	</g>
	<g>
	</g>
	<g>
	</g>
	<g>
	</g>
	<g>
	</g>
	<g>
	</g>
	<g>
	</g>
	<g>
	</g>
	<g>
	</g>
	<g>
	</g>
	<g>
	</g>
	<g>
	</g>
	<g>
	</g>
	<g>
	</g>
	<g>
	</g>
	<g>
	</g>
	<g>
	</g>
	<g>
	</g>
	<g>
	</g>
	<g>
	</g>
	<g>
	</g>
	<g>
	</g>
	<g>
	</g>
	<g>
	</g>
	<g>
	</g>
	<g>
	</g>
	<g>
	</g>
	<g>
	</g>
	<g>
	</g>
	<g>
	</g>
	<g>
	</g>
	<g>
	</g>
	<g>
	</g>
</g>
<path d="M60.338,40.223l-14.519-4.033l-3.062-11.478C42.176,22.526,40.188,21,37.927,21H29v-5h1c1.654,0,3-1.346,3-3V3
	c0-1.654-1.346-3-3-3h-8c-1.654,0-3,1.346-3,3v10c0,1.654,1.346,3,3,3h1v5h-7.927c-2.262,0-4.249,1.526-4.831,3.712L7.231,36H5
	c-2.757,0-5,2.243-5,5v12c0,2.757,2.243,5,5,5h3.08c0.488,3.386,3.401,6,6.92,6s6.432-2.614,6.92-6h16.16
	c0.488,3.386,3.401,6,6.92,6s6.432-2.614,6.92-6H59c2.757,0,5-2.243,5-5v-7.96C64,42.802,62.494,40.821,60.338,40.223z M61.997,45
	H61c-1.654,0-3-1.346-3-3v-0.35l1.803,0.501C61.084,42.505,61.979,43.674,61.997,45z M21,13V3c0-0.552,0.448-1,1-1h8
	c0.552,0,1,0.448,1,1v10c0,0.552-0.448,1-1,1h-8C21.448,14,21,13.552,21,13z M25,16h2v5h-2V16z M15,62c-2.757,0-5-2.243-5-5
	s2.243-5,5-5s5,2.243,5,5S17.757,62,15,62z M45,62c-2.757,0-5-2.243-5-5s2.243-5,5-5s5,2.243,5,5S47.757,62,45,62z M59,56h-7.08
	c-0.488-3.386-3.401-6-6.92-6s-6.432,2.614-6.92,6H27V39h14.135c0.311,0,0.604-0.145,0.793-0.391
	c0.189-0.247,0.253-0.567,0.173-0.867l-3.208-12C38.776,25.305,38.38,25,37.927,25H15.073c-0.453,0-0.85,0.305-0.966,0.742
	l-3.208,12c-0.08,0.3-0.017,0.62,0.173,0.867C11.262,38.855,11.555,39,11.865,39H25v17h-3.08c-0.488-3.386-3.401-6-6.92-6
	s-6.432,2.614-6.92,6H5c-1.654,0-3-1.346-3-3V41c0-1.654,1.346-3,3-3h3c0.453,0,0.85-0.305,0.966-0.742l3.208-12.03
	C12.523,23.916,13.716,23,15.073,23h22.854c1.357,0,2.55,0.916,2.899,2.228l3.208,12.03c0.091,0.343,0.356,0.61,0.698,0.706
	L56,41.094V42c0,2.757,2.243,5,5,5h1v6C62,54.654,60.654,56,59,56z M27,27h10.159l2.673,10H27V27z M25,37H13.168l2.673-10H25V37z"/>
<rect x="29" y="41" width="4" height="2"/>
<rect x="12" y="41" width="4" height="2"/>
<rect x="25" y="4" width="2" height="2"/>
<rect x="13" y="8" width="2" height="2"/>
<rect x="9" y="8" width="2" height="2"/>
<rect x="9" y="12" width="2" height="2"/>
<rect x="9" y="4" width="2" height="2"/>
<rect x="37" y="8" width="2" height="2"/>
<rect x="41" y="8" width="2" height="2"/>
<rect x="41" y="4" width="2" height="2"/>
<rect x="41" y="12" width="2" height="2"/>
</svg>
