<?xml version="1.0" encoding="UTF-8" standalone="no"?> <svg id="Layer_1" data-name="Layer 1" xmlns="http://www.w3.org/2000/svg" viewBox="0 0 128 128"><defs><style>.cls-1{fill:#2d3e50;}</style></defs><title>x</title><path class="cls-1" d="M70.93529,3.619c-.25371-.02855-.50742-.0571-.76431-.08246q-.65188-.06791-1.30746-.12012c-.35017-.0276-.70148-.03846-1.05274-.03846H19.17109l.21883.15857,12.36543,8.94028.11734.08562.15857.11419,38.904,28.13064V25.29259c.073.01585.14907.02538.222.03488l.71357.10149.70724.14589c.46937.10466.94508.17443,1.41127.29177.46621.12369.9324.24421,1.39862.35837a41.648,41.648,0,0,1,5.46756,1.906A43.86059,43.86059,0,0,1,86.025,30.84261a41.13487,41.13487,0,0,1,15.5686,17.49366L102.20886,49.7c.203.45669.36153.9324.55183,1.39542l.27909.69772.23151.71357.241.71357a7.21492,7.21492,0,0,1,.22518.71675,44.85836,44.85836,0,0,1,1.33516,5.91157,49.76461,49.76461,0,0,1,.46621,6.13038c0,.51379-.02538,1.02756-.02855,1.54133-.0095.25689-.00317.51695-.01585.77383l-.06026.76748-.05391.77066c-.01587.25689-.02538.51377-.06661.76748l-.18712,1.53181A43.55112,43.55112,0,0,1,94.73695,94.71221a45.59749,45.59749,0,0,1-21.9083,13.78623l-1.62377.425c-.26958.07929-.5455.12685-.81824.18395l-.82774.17125-.82774.17443c-.27591.05391-.55818.08881-.83726.1332-.55818.08246-1.11635.18077-1.68086.25689a57.11632,57.11632,0,0,1-6.844.38058c-.574,0-1.14488-.04439-1.72209-.06343l-.86264-.03171-.85945-.08246c-.57085-.06026-1.15123-.08562-1.72209-.16808l-1.71893-.24738a51.19453,51.19453,0,0,1-6.79639-1.61425A50.42248,50.42248,0,0,1,21.9778,91.94988a56.76383,56.76383,0,0,1-4.35755-6.124,54.16689,54.16689,0,0,1-3.49491-6.79A56.7457,56.7457,0,0,1,11.585,71.69708l-.47254-1.906c-.08881-.32032-.15224-.64064-.2125-.96411l-.1871-.97046-.1998-.97681-.01069-.05212A3.56237,3.56237,0,0,0,7.012,63.9207H6.90429A3.55335,3.55335,0,0,0,3.3601,67.69482,60.70217,60.70217,0,1,0,70.93529,3.619Z"/></svg>