<?xml version="1.0" encoding="utf-8"?>
<!-- Generator: Adobe Illustrator 16.0.0, SVG Export Plug-In . SVG Version: 6.00 Build 0)  -->
<!DOCTYPE svg PUBLIC "-//W3C//DTD SVG 1.1//EN" "http://www.w3.org/Graphics/SVG/1.1/DTD/svg11.dtd">
<svg version="1.1"
	 id="svg8" sodipodi:docname="PDF file icon.svg" inkscape:version="0.92.3 (2405546, 2018-03-11)" xmlns:dc="http://purl.org/dc/elements/1.1/" xmlns:cc="http://creativecommons.org/ns#" xmlns:rdf="http://www.w3.org/1999/02/22-rdf-syntax-ns#" xmlns:svg="http://www.w3.org/2000/svg" xmlns:sodipodi="http://sodipodi.sourceforge.net/DTD/sodipodi-0.dtd" xmlns:inkscape="http://www.inkscape.org/namespaces/inkscape"
	 xmlns="http://www.w3.org/2000/svg" xmlns:xlink="http://www.w3.org/1999/xlink" x="0px" y="0px" width="213.506px"
	 height="262.5px" viewBox="0 0 213.506 262.5" enable-background="new 0 0 213.506 262.5" xml:space="preserve">
<title  id="title2682">PDF file icon</title>
<sodipodi:namedview  id="base" fit-margin-bottom="0" fit-margin-right="0" inkscape:snap-others="false" inkscape:snap-page="false" inkscape:window-y="-8" inkscape:window-x="-8" inkscape:window-height="705" inkscape:window-width="1366" inkscape:object-nodes="false" inkscape:current-layer="g899" inkscape:document-units="mm" inkscape:pageshadow="2" inkscape:pageopacity="0.0" inkscape:cx="122.12727" inkscape:zoom="0.98994949" borderopacity="1.0" bordercolor="#666666" fit-margin-left="0" showgrid="false" pagecolor="#ffffff" fit-margin-top="0" inkscape:cy="167.02823" inkscape:window-maximized="1">
	</sodipodi:namedview>
<path id="path890" inkscape:connector-curvature="0" fill="#F200F9" d="M27.11,0.001C12.166,0.001,0,12.175,0,27.119v208.262
	C0,250.326,12.166,262.5,27.11,262.5h159.252c14.944,0,27.109-12.174,27.109-27.119V64.132c0,0,0.427-5.014-1.75-9.894
	c-2.041-4.574-5.366-7.757-5.366-7.757c-0.009-0.011-0.017-0.022-0.024-0.034L166.819,7.692c-0.021-0.022-0.043-0.044-0.065-0.066
	c0,0-3.373-3.212-8.374-5.358c-5.888-2.526-11.957-2.26-11.957-2.26L146.514,0L27.11,0.001z"/>
<path id="rect2684" inkscape:connector-curvature="0" fill="#FFFFFF" d="M27.11,8.909h119.404c0.029,0,0.06,0,0.09,0
	c0,0,4.774,0.046,8.268,1.545c3.361,1.443,5.744,3.626,5.76,3.641l0.017,0.017l39.412,38.664c0,0,2.374,2.507,3.525,5.087
	c0.929,2.083,0.986,5.892,0.986,5.892c-0.004,0.063-0.007,0.126-0.009,0.189v171.438c0,10.165-8.037,18.21-18.201,18.21H27.11
	c-10.165,0-18.202-8.045-18.202-18.21V27.12C8.908,16.955,16.945,8.909,27.11,8.909L27.11,8.909z"/>
<path id="path2697" sodipodi:nodetypes="scccscccscccccssscacccsccccccccccccccccccccaccccccccc" inkscape:connector-curvature="0" fill="#FF2116" d="
	M53.303,156.291c-6.129-6.129,0.502-14.551,18.498-23.494l11.323-5.628l4.411-9.652c2.426-5.309,6.047-13.97,8.047-19.249
	l3.636-9.596l-2.505-7.102c-3.081-8.732-4.179-21.855-2.225-26.574c2.647-6.392,11.319-5.736,14.753,1.115
	c2.681,5.351,2.406,15.042-0.771,27.262l-2.606,10.02l2.295,3.896c1.262,2.143,4.949,7.231,8.193,11.307l6.098,7.585l7.588-0.99
	c24.105-3.145,32.361,2.201,32.361,9.866c0,9.673-18.928,10.472-34.822-0.691c-3.576-2.512-6.031-5.007-6.031-5.007
	s-9.957,2.027-14.86,3.348c-5.061,1.364-7.585,2.218-14.998,4.72c0,0-2.601,3.777-4.295,6.523
	c-6.305,10.215-13.667,18.681-18.925,21.762C62.581,159.162,56.41,159.398,53.303,156.291z M62.921,152.854
	c3.445-2.13,10.418-10.376,15.246-18.031l1.954-3.099l-8.898,4.474c-13.744,6.911-20.032,13.423-16.762,17.362
	C56.297,155.773,58.494,155.591,62.921,152.854L62.921,152.854z M152.196,127.796c3.369-2.36,2.88-7.117-0.93-9.035
	c-2.965-1.492-5.354-1.799-13.057-1.685c-4.732,0.323-12.344,1.276-13.633,1.566c0,0,4.18,2.89,6.037,3.952
	c2.471,1.411,8.476,4.031,12.859,5.373C147.799,129.292,150.3,129.152,152.196,127.796L152.196,127.796z M116.3,112.876
	c-2.039-2.144-5.508-6.619-7.707-9.943c-2.875-3.771-4.317-6.433-4.317-6.433s-2.102,6.761-3.827,10.83l-5.38,13.299l-1.56,3.017
	c0,0,8.293-2.719,12.513-3.821c4.469-1.167,13.539-2.951,13.539-2.951L116.3,112.876z M104.731,66.486
	c0.521-4.365,0.741-8.724-0.662-10.922c-3.89-4.252-8.585-0.706-7.79,9.405c0.268,3.401,1.112,9.215,2.242,12.799l2.054,6.516
	l1.446-4.907C102.816,76.677,104.036,70.876,104.731,66.486L104.731,66.486z"/>
<g id="g858">
	<path id="path845" inkscape:connector-curvature="0" fill="#2C2C2C" d="M63.726,184.673h9.951c3.179,0,5.76,0.304,7.743,0.913
		c1.982,0.588,3.65,1.913,5.004,3.975c1.354,2.041,2.032,4.504,2.032,7.389c0,2.649-0.55,4.926-1.649,6.83s-2.581,3.277-4.445,4.121
		c-1.845,0.844-4.691,1.267-8.538,1.267h-3.444v15.691h-6.653V184.673z M70.379,189.824v14.014h3.297
		c2.944,0,4.975-0.549,6.094-1.648c1.138-1.1,1.708-2.885,1.708-5.357c0-1.846-0.373-3.337-1.119-4.476
		c-0.746-1.157-1.57-1.864-2.473-2.12c-0.883-0.274-2.286-0.412-4.209-0.412H70.379z"/>
	<path id="path847" inkscape:connector-curvature="0" fill="#2C2C2C" d="M93.548,184.673h9.038c4.376,0,7.87,0.775,10.48,2.325
		c2.63,1.551,4.612,3.857,5.946,6.919c1.355,3.062,2.031,6.457,2.031,10.187c0,3.925-0.607,7.428-1.824,10.51
		c-1.197,3.062-3.043,5.535-5.535,7.418c-2.473,1.885-6.006,2.827-10.598,2.827h-9.539V184.673z M100.201,190.002v29.527h2.768
		c3.866,0,6.673-1.334,8.419-4.004c1.748-2.688,2.621-6.271,2.621-10.745c0-9.853-3.68-14.778-11.04-14.778H100.201z"/>
	<path id="path849" inkscape:connector-curvature="0" fill="#2C2C2C" d="M127.433,184.673h22.316v5.329h-15.662v12.011h12.541v5.329
		h-12.541v17.517h-6.654V184.673z"/>
</g>
</svg>
